<?xml version="1.0" encoding="UTF-8"?>
<!DOCTYPE svg PUBLIC "-//W3C//DTD SVG 1.1//EN" "http://www.w3.org/Graphics/SVG/1.1/DTD/svg11.dtd">
<svg xmlns="http://www.w3.org/2000/svg" version="1.1" width="32px" height="54px" style="shape-rendering:geometricPrecision; text-rendering:geometricPrecision; image-rendering:optimizeQuality; fill-rule:evenodd; clip-rule:evenodd" xmlns:xlink="http://www.w3.org/1999/xlink">
<g><path style="opacity:1" fill="#fefefe" d="M -0.5,-0.5 C 10.1667,-0.5 20.8333,-0.5 31.5,-0.5C 31.5,17.5 31.5,35.5 31.5,53.5C 20.8333,53.5 10.1667,53.5 -0.5,53.5C -0.5,35.5 -0.5,17.5 -0.5,-0.5 Z"/></g>
<g><path style="opacity:1" fill="#fddfda" d="M 22.5,12.5 C 17.2649,14.45 11.5982,15.1167 5.5,14.5C 4.66175,14.1583 4.32842,13.4916 4.5,12.5C 10.5,11.1667 16.5,11.1667 22.5,12.5 Z"/></g>
<g><path style="opacity:1" fill="#f4a597" d="M 22.5,12.5 C 23.4614,14.2646 23.7947,16.2646 23.5,18.5C 22.5,18.5 21.5,18.5 20.5,18.5C 20.5,17.5 20.5,16.5 20.5,15.5C 15.8333,15.5 11.1667,15.5 6.5,15.5C 5.83333,15.5 5.5,15.1667 5.5,14.5C 11.5982,15.1167 17.2649,14.45 22.5,12.5 Z"/></g>
<g><path style="opacity:1" fill="#f8c3ba" d="M 4.5,12.5 C 4.32842,13.4916 4.66175,14.1583 5.5,14.5C 5.5,15.1667 5.83333,15.5 6.5,15.5C 6.5,24.1667 6.5,32.8333 6.5,41.5C 5.83333,41.5 5.5,41.8333 5.5,42.5C 4.56552,43.5676 4.23219,44.901 4.5,46.5C 3.16667,35.1667 3.16667,23.8333 4.5,12.5 Z"/></g>
<g><path style="opacity:1" fill="#f8c5bc" d="M 26.5,21.5 C 29.7608,24.3204 30.2608,27.6537 28,31.5C 22.9556,35.8264 18.6222,35.1598 15,29.5C 14.3301,21.8393 17.8301,18.6727 25.5,20C 26.056,20.3826 26.3893,20.8826 26.5,21.5 Z"/></g>
<g><path style="opacity:1" fill="#fef8f7" d="M 26.5,21.5 C 26.5394,22.5832 26.8728,23.5832 27.5,24.5C 26.624,25.2508 25.624,25.7508 24.5,26C 28.6099,29.6643 27.7765,32.1643 22,33.5C 18.3845,32.9017 16.7179,30.9017 17,27.5C 17.7175,28.4506 18.5509,28.6172 19.5,28C 18.1667,27.3333 18.1667,26.6667 19.5,26C 15.8729,24.7789 15.8729,23.1122 19.5,21C 21.8848,20.4436 24.2181,20.6103 26.5,21.5 Z"/></g>
<g><path style="opacity:1" fill="#f7bcb1" d="M 22.5,46.5 C 22.7678,44.901 22.4345,43.5676 21.5,42.5C 21.5,41.8333 21.1667,41.5 20.5,41.5C 20.5,39.5 20.5,37.5 20.5,35.5C 21.5,35.5 22.5,35.5 23.5,35.5C 23.815,39.3714 23.4816,43.0381 22.5,46.5 Z"/></g>
<g><path style="opacity:1" fill="#fefcfc" d="M 5.5,42.5 C 7.85684,42.3367 10.1902,42.5034 12.5,43C 11.1667,44 11.1667,45 12.5,46C 9.85397,46.4974 7.1873,46.6641 4.5,46.5C 4.23219,44.901 4.56552,43.5676 5.5,42.5 Z"/></g>
<g><path style="opacity:1" fill="#fefdfc" d="M 21.5,42.5 C 22.4345,43.5676 22.7678,44.901 22.5,46.5C 19.8127,46.6641 17.146,46.4974 14.5,46C 15.8333,45 15.8333,44 14.5,43C 16.8098,42.5034 19.1432,42.3367 21.5,42.5 Z"/></g>
<g><path style="opacity:1" fill="#f4a496" d="M 5.5,42.5 C 5.5,41.8333 5.83333,41.5 6.5,41.5C 11.1667,41.5 15.8333,41.5 20.5,41.5C 21.1667,41.5 21.5,41.8333 21.5,42.5C 19.1432,42.3367 16.8098,42.5034 14.5,43C 15.8333,44 15.8333,45 14.5,46C 17.146,46.4974 19.8127,46.6641 22.5,46.5C 16.5,47.8333 10.5,47.8333 4.5,46.5C 7.1873,46.6641 9.85397,46.4974 12.5,46C 11.1667,45 11.1667,44 12.5,43C 10.1902,42.5034 7.85684,42.3367 5.5,42.5 Z"/></g>
</svg>
