<?xml version="1.0" encoding="UTF-8"?>
<!DOCTYPE svg PUBLIC "-//W3C//DTD SVG 1.1//EN" "http://www.w3.org/Graphics/SVG/1.1/DTD/svg11.dtd">
<svg xmlns="http://www.w3.org/2000/svg" version="1.1" width="37px" height="52px" style="shape-rendering:geometricPrecision; text-rendering:geometricPrecision; image-rendering:optimizeQuality; fill-rule:evenodd; clip-rule:evenodd" xmlns:xlink="http://www.w3.org/1999/xlink">
<g><path style="opacity:1" fill="#fefcfc" d="M -0.5,-0.5 C 11.8333,-0.5 24.1667,-0.5 36.5,-0.5C 36.5,16.8333 36.5,34.1667 36.5,51.5C 24.1667,51.5 11.8333,51.5 -0.5,51.5C -0.5,43.5 -0.5,35.5 -0.5,27.5C 3.59371,37.8793 10.927,41.2126 21.5,37.5C 24.5707,40.5789 27.9041,43.2456 31.5,45.5C 35.5969,44.3777 36.4302,42.0443 34,38.5C 32.292,36.4565 30.292,34.7899 28,33.5C 27.9991,30.4822 28.4991,27.4822 29.5,24.5C 29.1667,23.8333 28.8333,23.1667 28.5,22.5C 27.1906,33.9808 20.8573,38.8141 9.5,37C 7.04003,35.5422 4.87337,33.7089 3,31.5C 4.8088,27.344 7.8088,24.0106 12,21.5C 14.914,22.7477 16.7473,24.9144 17.5,28C 18.7494,28.7401 19.7494,28.5735 20.5,27.5C 23.0272,23.4589 26.1938,19.7922 30,16.5C 30.3333,17.1667 30.6667,17.8333 31,18.5C 31.4935,16.8659 31.6602,15.1992 31.5,13.5C 30.0222,13.238 28.6888,13.5713 27.5,14.5C 27.7093,15.086 28.0426,15.586 28.5,16C 25.9114,19.0969 22.9114,21.5969 19.5,23.5C 16.0268,22.7362 14.0268,20.5696 13.5,17C 10.2096,16.4106 8.70963,17.9106 9,21.5C 6.66667,23.8333 4.33333,26.1667 2,28.5C -0.130422,18.4109 3.86958,12.7442 14,11.5C 17.794,11.7788 21.294,12.6121 24.5,14C 14.1108,6.67136 5.77748,8.50469 -0.5,19.5C -0.5,12.8333 -0.5,6.16667 -0.5,-0.5 Z"/></g>
<g><path style="opacity:1" fill="#f49e8f" d="M 20.5,27.5 C 19.7494,28.5735 18.7494,28.7401 17.5,28C 16.7473,24.9144 14.914,22.7477 12,21.5C 7.8088,24.0106 4.8088,27.344 3,31.5C 4.87337,33.7089 7.04003,35.5422 9.5,37C 20.8573,38.8141 27.1906,33.9808 28.5,22.5C 28.8333,23.1667 29.1667,23.8333 29.5,24.5C 28.4991,27.4822 27.9991,30.4822 28,33.5C 30.292,34.7899 32.292,36.4565 34,38.5C 36.4302,42.0443 35.5969,44.3777 31.5,45.5C 27.9041,43.2456 24.5707,40.5789 21.5,37.5C 10.927,41.2126 3.59371,37.8793 -0.5,27.5C -0.5,24.8333 -0.5,22.1667 -0.5,19.5C 5.77748,8.50469 14.1108,6.67136 24.5,14C 21.294,12.6121 17.794,11.7788 14,11.5C 3.86958,12.7442 -0.130422,18.4109 2,28.5C 4.33333,26.1667 6.66667,23.8333 9,21.5C 8.70963,17.9106 10.2096,16.4106 13.5,17C 14.0268,20.5696 16.0268,22.7362 19.5,23.5C 22.9114,21.5969 25.9114,19.0969 28.5,16C 28.0426,15.586 27.7093,15.086 27.5,14.5C 28.6888,13.5713 30.0222,13.238 31.5,13.5C 31.6602,15.1992 31.4935,16.8659 31,18.5C 30.6667,17.8333 30.3333,17.1667 30,16.5C 26.1938,19.7922 23.0272,23.4589 20.5,27.5 Z"/></g>
<g><path style="opacity:1" fill="#fcdfd9" d="M 20.5,27.5 C 18.663,27.3605 18.3296,26.6939 19.5,25.5C 20.2975,25.9569 20.6309,26.6236 20.5,27.5 Z"/></g>
<g><path style="opacity:1" fill="#f7b1a3" d="M 7.5,29.5 C 10.5719,29.1826 13.5719,29.5159 16.5,30.5C 15,30.8333 13.5,31.1667 12,31.5C 10.0145,31.4313 8.51448,30.7647 7.5,29.5 Z"/></g>
<g><path style="opacity:1" fill="#f7b1a3" d="M 7.5,32.5 C 10.5719,32.1826 13.5719,32.5159 16.5,33.5C 15,33.8333 13.5,34.1667 12,34.5C 10.0145,34.4313 8.51448,33.7647 7.5,32.5 Z"/></g>
<g><path style="opacity:1" fill="#fefdfd" d="M 25.5,33.5 C 29.3384,35.9937 32.0051,39.327 33.5,43.5C 29.5276,42.0508 26.1943,39.5508 23.5,36C 24.3805,35.2917 25.0472,34.4584 25.5,33.5 Z"/></g>
</svg>
