<?xml version="1.0" encoding="UTF-8"?>
<!DOCTYPE svg PUBLIC "-//W3C//DTD SVG 1.1//EN" "http://www.w3.org/Graphics/SVG/1.1/DTD/svg11.dtd">
<svg xmlns="http://www.w3.org/2000/svg" version="1.1" width="59px" height="51px" style="shape-rendering:geometricPrecision; text-rendering:geometricPrecision; image-rendering:optimizeQuality; fill-rule:evenodd; clip-rule:evenodd" xmlns:xlink="http://www.w3.org/1999/xlink">
<g><path style="opacity:1" fill="#fefefe" d="M -0.5,-0.5 C 19.1667,-0.5 38.8333,-0.5 58.5,-0.5C 58.5,16.5 58.5,33.5 58.5,50.5C 38.8333,50.5 19.1667,50.5 -0.5,50.5C -0.5,33.5 -0.5,16.5 -0.5,-0.5 Z"/></g>
<g><path style="opacity:1" fill="#f18b79" d="M 15.5,5.5 C 24.5062,5.33356 33.5062,5.50023 42.5,6C 43,6.5 43.5,7 44,7.5C 44.6667,18.1667 44.6667,28.8333 44,39.5C 43.5,40 43,40.5 42.5,41C 33.5,41.6667 24.5,41.6667 15.5,41C 15,40.5 14.5,40 14,39.5C 13.3333,28.8333 13.3333,18.1667 14,7.5C 14.7172,6.9558 15.2172,6.28913 15.5,5.5 Z"/></g>
<g><path style="opacity:1" fill="#fefcfb" d="M 16.5,7.5 C 25.0851,7.18344 33.5851,7.51677 42,8.5C 42.8186,18.7438 42.652,28.9105 41.5,39C 32.9213,39.8157 24.4213,39.649 16,38.5C 15.1925,28.0899 15.3592,17.7565 16.5,7.5 Z"/></g>
<g><path style="opacity:1" fill="#f4a496" d="M 24.5,13.5 C 25.2389,13.369 25.9056,13.5357 26.5,14C 25.2567,15.1545 24.2567,16.4878 23.5,18C 22.0347,18.6013 21.0347,18.1013 20.5,16.5C 22.1836,15.8503 23.5169,14.8503 24.5,13.5 Z"/></g>
<g><path style="opacity:1" fill="#f7b5a8" d="M 27.5,15.5 C 31.226,15.1774 34.8927,15.5108 38.5,16.5C 36.6667,16.8333 34.8333,17.1667 33,17.5C 30.7047,17.4535 28.8714,16.7868 27.5,15.5 Z"/></g>
<g><path style="opacity:1" fill="#f39b8d" d="M 24.5,21.5 C 25.2389,21.369 25.9056,21.5357 26.5,22C 25.2343,23.9827 23.5676,24.9827 21.5,25C 20.1373,22.8707 20.4706,22.3707 22.5,23.5C 23.5223,23.1445 24.189,22.4778 24.5,21.5 Z"/></g>
<g><path style="opacity:1" fill="#f29686" d="M 28.5,22.5 C 31.8984,22.1796 35.2317,22.513 38.5,23.5C 34.878,24.6586 31.2113,24.8253 27.5,24C 28.056,23.6174 28.3893,23.1174 28.5,22.5 Z"/></g>
<g><path style="opacity:1" fill="#fee4df" d="M 24.5,33.5 C 23.5,34.8333 22.5,34.8333 21.5,33.5C 21.5,32.1667 21.5,30.8333 21.5,29.5C 22.5,29.5 23.5,29.5 24.5,29.5C 24.5,30.8333 24.5,32.1667 24.5,33.5 Z"/></g>
<g><path style="opacity:1" fill="#f4a597" d="M 24.5,33.5 C 24.5,32.1667 24.5,30.8333 24.5,29.5C 23.5,29.5 22.5,29.5 21.5,29.5C 21.5,30.8333 21.5,32.1667 21.5,33.5C 19.4178,32.4151 19.0844,30.9151 20.5,29C 22.1667,28.3333 23.8333,28.3333 25.5,29C 26.9156,30.9151 26.5822,32.4151 24.5,33.5 Z"/></g>
<g><path style="opacity:1" fill="#f4a495" d="M 27.5,30.5 C 31.226,30.1774 34.8927,30.5108 38.5,31.5C 36.6667,31.8333 34.8333,32.1667 33,32.5C 30.7047,32.4535 28.8714,31.7868 27.5,30.5 Z"/></g>
</svg>
