<?xml version="1.0" encoding="UTF-8"?>
<!DOCTYPE svg PUBLIC "-//W3C//DTD SVG 1.1//EN" "http://www.w3.org/Graphics/SVG/1.1/DTD/svg11.dtd">
<svg xmlns="http://www.w3.org/2000/svg" version="1.1" width="54px" height="49px" style="shape-rendering:geometricPrecision; text-rendering:geometricPrecision; image-rendering:optimizeQuality; fill-rule:evenodd; clip-rule:evenodd" xmlns:xlink="http://www.w3.org/1999/xlink">
<g><path style="opacity:1" fill="#fefefe" d="M -0.5,-0.5 C 17.5,-0.5 35.5,-0.5 53.5,-0.5C 53.5,15.8333 53.5,32.1667 53.5,48.5C 35.5,48.5 17.5,48.5 -0.5,48.5C -0.5,32.1667 -0.5,15.8333 -0.5,-0.5 Z"/></g>
<g><path style="opacity:1" fill="#fef9f8" d="M 37.5,17.5 C 37.5,20.1667 37.5,22.8333 37.5,25.5C 33.933,34.7812 27.2664,37.9479 17.5,35C 9.12648,29.2398 7.29314,21.7398 12,12.5C 17.6901,7.30855 24.1901,6.14189 31.5,9C 34.3806,11.2787 36.3806,14.112 37.5,17.5 Z"/></g>
<g><path style="opacity:1" fill="#f7b4a8" d="M 38.5,16.5 C 39.8333,19.8333 39.8333,23.1667 38.5,26.5C 38.5,25.8333 38.1667,25.5 37.5,25.5C 37.5,22.8333 37.5,20.1667 37.5,17.5C 38.1667,17.5 38.5,17.1667 38.5,16.5 Z"/></g>
<g><path style="opacity:1" fill="#f29787" d="M 19.5,25.5 C 19.5,26.5 19.5,27.5 19.5,28.5C 20.5,28.5 21.5,28.5 22.5,28.5C 22.5,26.5 22.5,24.5 22.5,22.5C 23.2844,23.7408 23.951,25.7408 24.5,28.5C 25.8333,20.5 27.1667,20.5 28.5,28.5C 29.3214,25.5535 29.8214,22.5535 30,19.5C 29.9789,23.0088 30.8122,26.1755 32.5,29C 26.5092,29.4995 20.5092,29.6662 14.5,29.5C 14.1718,24.1254 14.5052,18.7921 15.5,13.5C 16.1667,15.5 16.8333,17.5 17.5,19.5C 19.9818,18.1028 22.6484,17.2694 25.5,17C 26.3366,15.9887 26.67,14.8221 26.5,13.5C 27.5,13.5 28.5,13.5 29.5,13.5C 29.6567,14.8734 29.49,16.2068 29,17.5C 28.6667,17.1667 28.3333,16.8333 28,16.5C 26.9989,19.2156 25.3323,19.8822 23,18.5C 17.3359,19.7516 15.5026,23.0849 17.5,28.5C 17.9963,26.6021 18.663,25.6021 19.5,25.5 Z"/></g>
<g><path style="opacity:1" fill="#f49d8e" d="M 38.5,16.5 C 38.5,17.1667 38.1667,17.5 37.5,17.5C 36.3806,14.112 34.3806,11.2787 31.5,9C 24.1901,6.14189 17.6901,7.30855 12,12.5C 7.29314,21.7398 9.12648,29.2398 17.5,35C 27.2664,37.9479 33.933,34.7812 37.5,25.5C 38.1667,25.5 38.5,25.8333 38.5,26.5C 38.1075,28.2838 37.4408,29.9505 36.5,31.5C 35.5,32.5 34.5,33.5 33.5,34.5C 23.4545,40.0158 15.2878,38.0158 9,28.5C 5.72621,20.2689 7.55955,13.4355 14.5,8C 23.1619,3.70301 30.6619,5.20301 37,12.5C 37.7914,13.745 38.2914,15.0783 38.5,16.5 Z"/></g>
<g><path style="opacity:1" fill="#f9cec7" d="M 22.5,22.5 C 22.5,24.5 22.5,26.5 22.5,28.5C 21.5,28.5 20.5,28.5 19.5,28.5C 19.5,27.5 19.5,26.5 19.5,25.5C 20.2216,25.9175 20.7216,26.5842 21,27.5C 21.1981,25.6183 21.6981,23.9516 22.5,22.5 Z"/></g>
<g><path style="opacity:1" fill="#f6b1a4" d="M 36.5,31.5 C 38.0512,34.5628 40.2179,37.2295 43,39.5C 43.6877,40.3317 43.521,40.9984 42.5,41.5C 39.7485,38.7366 36.7485,36.4033 33.5,34.5C 34.5,33.5 35.5,32.5 36.5,31.5 Z"/></g>
</svg>
